HIERARCHY
ROOT hip
{
  OFFSET 0 0 0
  CHANNELS 6 Xposition Yposition Zposition Zrotation Yrotation Xrotation
  JOINT abdomen
  {
    OFFSET 0 20.6881 -0.73152
    CHANNELS 3 Zrotation Xrotation Yrotation
    JOINT chest
    {
      OFFSET 0 11.7043 -0.48768
      CHANNELS 3 Zrotation Xrotation Yrotation
      JOINT neck
      {
        OFFSET 0 22.1894 -2.19456
        CHANNELS 3 Zrotation Xrotation Yrotation
        JOINT head
        {
          OFFSET -0.24384 7.07133 1.2192
          CHANNELS 3 Zrotation Xrotation Yrotation
          JOINT leftEye
          {
            OFFSET 4.14528 8.04674 8.04672
            CHANNELS 3 Zrotation Xrotation Yrotation
            End Site
            {
              OFFSET 1 0 0
            }
          }
          JOINT rightEye
          {
            OFFSET -3.6576 8.04674 8.04672
            CHANNELS 3 Zrotation Xrotation Yrotation
            End Site
            {
              OFFSET 1 0 0
            }
          }
        }
      }
      JOINT rCollar
      {
        OFFSET -2.68224 19.2634 -4.8768
        CHANNELS 3 Zrotation Xrotation Yrotation
        JOINT rShldr
        {
          OFFSET -8.77824 -1.95073 1.46304
          CHANNELS 3 Zrotation Xrotation Yrotation
          JOINT rForeArm
          {
            OFFSET -28.1742 -1.7115 0.48768
            CHANNELS 3 Zrotation Xrotation Yrotation
            JOINT rHand
            {
              OFFSET -22.5879 0.773209 7.07136
              CHANNELS 3 Zrotation Xrotation Yrotation
              JOINT rThumb1
              {
                OFFSET -1.2192 -0.487915 3.41376
                CHANNELS 3 Zrotation Xrotation Yrotation
                JOINT rThumb2
                {
                  OFFSET -3.37035 -0.52449 3.41376
                  CHANNELS 3 Zrotation Xrotation Yrotation
                  End Site
                  {
                    OFFSET -1.78271 -1.18214 1.43049
                  }
                }
              }
              JOINT rIndex1
              {
                OFFSET -7.75947 0.938293 5.60832
                CHANNELS 3 Zrotation Xrotation Yrotation
                JOINT rIndex2
                {
                  OFFSET -2.54057 -0.884171 1.56538
                  CHANNELS 3 Zrotation Xrotation Yrotation
                  End Site
                  {
                    OFFSET -1.62519 -0.234802 1.16502
                  }
                }
              }
              JOINT rMid1
              {
                OFFSET -8.24714 1.18213 3.41376
                CHANNELS 3 Zrotation Xrotation Yrotation
                JOINT rMid2
                {
                  OFFSET -3.10165 -0.590103 1.0647
                  CHANNELS 3 Zrotation Xrotation Yrotation
                  End Site
                  {
                    OFFSET -2.48547 -0.328903 0.83742
                  }
                }
              }
              JOINT rRing1
              {
                OFFSET -8.82822 0.546677 1.51678
                CHANNELS 3 Zrotation Xrotation Yrotation
                JOINT rRing2
                {
                  OFFSET -2.60934 -0.819778 -0.0198488
                  CHANNELS 3 Zrotation Xrotation Yrotation
                  End Site
                  {
                    OFFSET -2.33842 -0.294052 0.168128
                  }
                }
              }
              JOINT rPinky1
              {
                OFFSET -8.27202 -0.0477905 -0.4584
                CHANNELS 3 Zrotation Xrotation Yrotation
                JOINT rPinky2
                {
                  OFFSET -1.82734 -0.647385 -0.700984
                  CHANNELS 3 Zrotation Xrotation Yrotation
                  End Site
                  {
                    OFFSET -1.69225 -0.51767 -0.607171
                  }
                }
              }
            }
          }
        }
      }
      JOINT lCollar
      {
        OFFSET 2.68224 19.2634 -4.8768
        CHANNELS 3 Zrotation Xrotation Yrotation
        JOINT lShldr
        {
          OFFSET 8.77824 -1.95073 1.46304
          CHANNELS 3 Zrotation Xrotation Yrotation
          JOINT lForeArm
          {
            OFFSET 28.1742 -1.7115 0.48768
            CHANNELS 3 Zrotation Xrotation Yrotation
            JOINT lHand
            {
              OFFSET 22.5879 0.773209 7.07136
              CHANNELS 3 Zrotation Xrotation Yrotation
              JOINT lThumb1
              {
                OFFSET 1.2192 -0.487915 3.41376
                CHANNELS 3 Zrotation Xrotation Yrotation
                JOINT lThumb2
                {
                  OFFSET 3.37035 -0.52449 3.41376
                  CHANNELS 3 Zrotation Xrotation Yrotation
                  End Site
                  {
                    OFFSET 1.78271 -1.18214 1.43049
                  }
                }
              }
              JOINT lIndex1
              {
                OFFSET 7.75947 0.938293 5.60832
                CHANNELS 3 Zrotation Xrotation Yrotation
                JOINT lIndex2
                {
                  OFFSET 2.54057 -0.884171 1.56538
                  CHANNELS 3 Zrotation Xrotation Yrotation
                  End Site
                  {
                    OFFSET 1.62519 -0.234802 1.16502
                  }
                }
              }
              JOINT lMid1
              {
                OFFSET 8.24714 1.18213 3.41376
                CHANNELS 3 Zrotation Xrotation Yrotation
                JOINT lMid2
                {
                  OFFSET 3.10165 -0.590103 1.0647
                  CHANNELS 3 Zrotation Xrotation Yrotation
                  End Site
                  {
                    OFFSET 2.48547 -0.328903 0.83742
                  }
                }
              }
              JOINT lRing1
              {
                OFFSET 8.82822 0.546677 1.51678
                CHANNELS 3 Zrotation Xrotation Yrotation
                JOINT lRing2
                {
                  OFFSET 2.60934 -0.819778 -0.0198488
                  CHANNELS 3 Zrotation Xrotation Yrotation
                  End Site
                  {
                    OFFSET 2.33842 -0.294052 0.168128
                  }
                }
              }
              JOINT lPinky1
              {
                OFFSET 8.27202 -0.0477905 -0.4584
                CHANNELS 3 Zrotation Xrotation Yrotation
                JOINT lPinky2
                {
                  OFFSET 1.82734 -0.647385 -0.700984
                  CHANNELS 3 Zrotation Xrotation Yrotation
                  End Site
                  {
                    OFFSET 1.69225 -0.51767 -0.607171
                  }
                }
              }
            }
          }
        }
      }
    }
  }
  JOINT rButtock
  {
    OFFSET -8.77824 4.35084 1.2192
    CHANNELS 3 Zrotation Xrotation Yrotation
    JOINT rThigh
    {
      OFFSET 0 -1.70687 -2.19456
      CHANNELS 3 Zrotation Xrotation Yrotation
      JOINT rShin
      {
        OFFSET 0 -36.8199 0.73152
        CHANNELS 3 Zrotation Xrotation Yrotation
        JOINT rFoot
        {
          OFFSET 0.73152 -45.1104 -5.12064
          CHANNELS 3 Zrotation Xrotation Yrotation
          End Site
          {
            OFFSET -1.1221 -3.69964 12.103
          }
        }
      }
    }
  }
  JOINT lButtock
  {
    OFFSET 8.77824 4.35084 1.2192
    CHANNELS 3 Zrotation Xrotation Yrotation
    JOINT lThigh
    {
      OFFSET 0 -1.70687 -2.19456
      CHANNELS 3 Zrotation Xrotation Yrotation
      JOINT lShin
      {
        OFFSET 0 -36.8199 0.73152
        CHANNELS 3 Zrotation Xrotation Yrotation
        JOINT lFoot
        {
          OFFSET -0.73152 -45.1104 -5.12064
          CHANNELS 3 Zrotation Xrotation Yrotation
          End Site
          {
            OFFSET 1.1221 -3.69964 12.103
          }
        }
      }
    }
  }
}
MOTION
Frames:	8
Frame Time:	0.00833333
50.6428 84.5343 -164.519 -182.103 -5.6097 -184.473 -1.6198 -3.48226 2.54483 -2.14505 -4.86928 0.28106 -8.25957 15.1331 -3.4791 8.69125 -12.3757 -7.21735 -0.0 0.0 0.0 -0.0 0.0 0.0 6.55599e-14 8.45808e-14 -1.14599e-13 83.2698 30.4878 -16.7357 -16.5656 -9.22344 30.876 -0.194604 12.469 1.7809 4.39292e-10 6.02291e-10 -9.11744e-10 7.5195e-10 1.05655e-09 -1.58248e-09 4.39297e-10 6.02295e-10 -9.11752e-10 7.73091 5.47488 0.417314 4.39289e-10 6.02298e-10 -9.11745e-10 2.90554 0.965183 0.102902 4.39297e-10 6.02296e-10 -9.11741e-10 10.2786 0.731801 0.0259123 4.39287e-10 6.02295e-10 -9.11735e-10 2.22167 -0.733487 -0.20892 6.54683e-14 8.45842e-14 -1.14742e-13 -79.1102 18.978 9.36832 15.941 -8.6324 -29.5485 0.556715 20.7104 -3.04586 -1.73983e-10 6.59391e-10 -1.41687e-10 -3.04584e-10 1.1393e-09 -2.40894e-10 -1.73986e-10 6.59395e-10 -1.41683e-10 -7.73091 5.47488 -0.417314 -1.73982e-10 6.59392e-10 -1.41684e-10 -2.90554 0.965183 -0.102902 -1.7399e-10 6.5939e-10 -1.41686e-10 -10.2786 0.731801 -0.0259123 -1.73976e-10 6.59391e-10 -1.4169e-10 -2.22167 -0.733487 0.20892 -2.03217e-16 0.0 -3.88251e-19 -11.765 -27.3504 -8.48782 -2.76171 74.2152 3.43877 -0.848011 4.30149 -7.26402 2.03217e-16 0.0 3.88251e-19 -18.2039 -0.34078 -7.27394 -0.0157986 20.2445 -0.316113 8.46533 -18.5259 22.0093
50.4852 84.5133 -164.832 -182.382 -5.8266 -184.478 -1.61535 -3.43511 1.951 -1.98872 -4.85997 0.131788 -7.78468 15.1562 -3.23597 7.80096 -12.4921 -6.83143 -0.0 0.0 0.0 -0.0 0.0 0.0 9.70165e-14 1.61176e-13 -9.06559e-14 82.9899 30.3511 -16.6623 -16.5816 -9.23895 30.9103 -0.193039 12.4199 1.77365 6.56809e-10 5.18227e-10 -1.07387e-09 1.12756e-09 9.14543e-10 -1.86542e-09 6.56817e-10 5.18227e-10 -1.07389e-09 7.73091 5.47488 0.417314 6.56807e-10 5.1823e-10 -1.07388e-09 2.90554 0.965183 0.102902 6.56814e-10 5.18227e-10 -1.07387e-09 10.2786 0.731801 0.0259123 6.56804e-10 5.18227e-10 -1.07387e-09 2.22167 -0.733487 -0.20892 9.68764e-14 1.61177e-13 -9.0857e-14 -79.15 18.9554 9.14314 15.9366 -8.6283 -29.5393 0.558602 20.7435 -3.05119 -7.12443e-10 3.60512e-10 3.65504e-11 -1.23315e-09 6.30753e-10 7.71477e-11 -7.12445e-10 3.60514e-10 3.65578e-11 -7.73091 5.47488 -0.417314 -7.12441e-10 3.60512e-10 3.6556e-11 -2.90554 0.965183 -0.102902 -7.1245e-10 3.60511e-10 3.65545e-11 -10.2786 0.731801 -0.0259123 -7.12434e-10 3.60513e-10 3.65515e-11 -2.22167 -0.733487 0.20892 -2.03217e-16 0.0 -3.88251e-19 -11.4604 -28.0918 -7.87649 -2.64923 73.7693 3.35001 -1.24157 2.67085 -8.58028 2.03217e-16 0.0 3.88251e-19 -18.2441 -0.0464945 -7.36456 -0.0168365 20.1286 -0.334078 8.03845 -17.2488 22.0525
50.3216 84.4763 -165.192 -182.634 -6.0685 -184.568 -1.6012 -3.34636 1.3642 -1.82702 -4.89695 -0.0146374 -7.35176 15.15 -3.01539 6.99527 -12.5662 -6.48323 -0.0 0.0 0.0 -0.0 0.0 0.0 1.10817e-13 1.89243e-13 -8.17502e-14 82.7274 30.2514 -16.6008 -16.5826 -9.24 30.9125 -0.190491 12.3403 1.76192 7.07406e-10 4.63432e-10 -1.10544e-09 1.21523e-09 8.20182e-10 -1.92048e-09 7.07415e-10 4.63431e-10 -1.10545e-09 7.73091 5.47488 0.417314 7.07405e-10 4.63432e-10 -1.10544e-09 2.90554 0.965183 0.102902 7.07412e-10 4.6343e-10 -1.10544e-09 10.2786 0.731801 0.0259123 7.07402e-10 4.63429e-10 -1.10543e-09 2.22167 -0.733487 -0.20892 1.10637e-13 1.89243e-13 -8.19987e-14 -79.1886 19.0105 8.9671 15.9551 -8.64555 -29.5779 0.557352 20.7221 -3.04774 -9.00984e-10 2.51269e-10 6.79207e-11 -1.55886e-09 4.43579e-10 1.347e-10 -9.00987e-10 2.5127e-10 6.79303e-11 -7.73091 5.47488 -0.417314 -9.00984e-10 2.51268e-10 6.79271e-11 -2.90554 0.965183 -0.102902 -9.00991e-10 2.51269e-10 6.79263e-11 -10.2786 0.731801 -0.0259123 -9.00975e-10 2.51271e-10 6.79239e-11 -2.22167 -0.733487 0.20892 -2.03217e-16 0.0 -3.88251e-19 -11.0744 -28.7599 -7.2006 -2.51617 73.1883 3.23875 -1.67046 1.13843 -9.81265 2.03217e-16 0.0 3.88251e-19 -18.2537 0.249917 -7.46711 -0.0177609 20.0226 -0.354395 7.7675 -16.4096 22.0721
50.2033 84.4526 -165.478 -182.797 -6.3386 -184.591 -1.5766 -3.1862 0.784737 -1.66051 -5.01042 -0.15809 -6.98076 15.0966 -2.82781 6.31064 -12.5725 -6.18985 -0.0 0.0 0.0 -0.0 0.0 0.0 9.80263e-14 1.41733e-13 -1.06838e-13 82.4943 30.2308 -16.5542 -16.562 -9.22004 30.868 -0.185894 12.1956 1.74059 5.05109e-10 4.63633e-10 -9.65411e-10 8.66357e-10 8.16685e-10 -1.67563e-09 5.05116e-10 4.63632e-10 -9.65426e-10 7.73091 5.47488 0.417314 5.0511e-10 4.63631e-10 -9.65411e-10 2.90554 0.965183 0.102902 5.05114e-10 4.6363e-10 -9.65413e-10 10.2786 0.731801 0.0259123 5.05104e-10 4.63629e-10 -9.65406e-10 2.22167 -0.733487 -0.20892 9.78114e-14 1.41733e-13 -1.0712e-13 -79.2238 19.1859 8.87003 16.0105 -8.69726 -29.694 0.551291 20.6165 -3.03074 -5.07428e-10 5.08266e-10 -1.55152e-10 -8.81987e-10 8.78351e-10 -2.58574e-10 -5.07434e-10 5.08264e-10 -1.55142e-10 -7.73091 5.47488 -0.417314 -5.07432e-10 5.08262e-10 -1.55149e-10 -2.90554 0.965183 -0.102902 -5.07436e-10 5.08266e-10 -1.55147e-10 -10.2786 0.731801 -0.0259123 -5.07421e-10 5.08268e-10 -1.55151e-10 -2.22167 -0.733487 0.20892 -2.03217e-16 0.0 -3.88251e-19 -10.5838 -29.339 -6.44546 -2.36513 72.4589 3.10847 -2.12221 -0.306945 -10.9574 2.03217e-16 0.0 3.88251e-19 -18.2267 0.554453 -7.58632 -0.0187789 19.932 -0.378716 7.72434 -16.1796 22.0666
50.1581 84.4782 -165.748 -182.741 -6.5242 -184.613 -1.54144 -2.97951 0.213999 -1.48971 -5.17054 -0.29822 -6.64086 15.0087 -2.6638 5.6908 -12.5386 -5.93588 -0.0 0.0 0.0 -0.0 0.0 0.0 6.95568e-14 4.49254e-14 -1.51017e-13 82.2769 30.2611 -16.5156 -16.5243 -9.18367 30.7872 -0.180038 12.0067 1.71281 1.24129e-10 5.12043e-10 -7.14346e-10 2.09034e-10 8.93556e-10 -1.23652e-09 1.24133e-10 5.12043e-10 -7.14358e-10 7.73091 5.47488 0.417314 1.24132e-10 5.1204e-10 -7.14346e-10 2.90554 0.965183 0.102902 1.24134e-10 5.1204e-10 -7.14349e-10 10.2786 0.731801 0.0259123 1.24122e-10 5.12039e-10 -7.14343e-10 2.22167 -0.733487 -0.20892 6.93082e-14 4.4924e-14 -1.51328e-13 -79.2576 19.4427 8.8241 16.0922 -8.77366 -29.8664 0.541781 20.4482 -3.00371 2.40531e-10 9.63032e-10 -5.48537e-10 4.05093e-10 1.64775e-09 -9.52959e-10 2.4052e-10 9.63027e-10 -5.48527e-10 -7.73091 5.47488 -0.417314 2.40522e-10 9.63023e-10 -5.48538e-10 -2.90554 0.965183 -0.102902 2.40522e-10 9.63033e-10 -5.48533e-10 -10.2786 0.731801 -0.0259123 2.40534e-10 9.63032e-10 -5.48539e-10 -2.22167 -0.733487 0.20892 -2.03217e-16 0.0 -3.88251e-19 -9.99836 -29.8476 -5.60527 -2.2003 71.5811 2.96442 -2.59553 -1.67304 -12.0511 2.03217e-16 0.0 3.88251e-19 -18.1709 0.86377 -7.72251 -0.0196636 19.8408 -0.404685 7.79518 -16.2409 22.0577
50.1471 84.5177 -166.031 -182.616 -6.6171 -184.704 -1.49301 -2.77482 -0.34953 -1.31423 -5.33179 -0.435686 -6.30922 14.917 -2.50726 5.0929 -12.5015 -5.69502 -0.0 0.0 0.0 -0.0 0.0 0.0 3.73272e-14 -6.00328e-14 -1.82815e-13 82.0581 30.2689 -16.4829 -16.4811 -9.14206 30.6948 -0.174905 11.8361 1.68776 -2.97748e-10 5.5587e-10 -3.99123e-10 -5.18476e-10 9.61436e-10 -6.8596e-10 -2.97748e-10 5.55871e-10 -3.99132e-10 7.73091 5.47488 0.417314 -2.97744e-10 5.55866e-10 -3.99123e-10 2.90554 0.965183 0.102902 -2.97744e-10 5.55867e-10 -3.99128e-10 10.2786 0.731801 0.0259123 -2.97757e-10 5.55866e-10 -3.99123e-10 2.22167 -0.733487 -0.20892 3.7056e-14 -6.00347e-14 -1.83147e-13 -79.2915 19.7148 8.7829 16.176 -8.85209 -30.0444 0.531779 20.268 -2.97487 9.91263e-10 1.34456e-09 -9.33285e-10 1.69731e-09 2.29098e-09 -1.63248e-09 9.91247e-10 1.34455e-09 -9.33275e-10 -7.73091 5.47488 -0.417314 9.91249e-10 1.34455e-09 -9.33291e-10 -2.90554 0.965183 -0.102902 9.91252e-10 1.34456e-09 -9.33284e-10 -10.2786 0.731801 -0.0259123 9.91262e-10 1.34456e-09 -9.33291e-10 -2.22167 -0.733487 0.20892 -2.03217e-16 0.0 -3.88251e-19 -9.36588 -30.3014 -4.71649 -2.03222 70.5845 2.81449 -3.07273 -2.92885 -13.0802 2.03217e-16 0.0 3.88251e-19 -18.0933 1.16676 -7.86484 -0.0201313 19.7485 -0.430349 7.90749 -16.4427 22.0139
50.085 84.5053 -166.273 -182.663 -6.8253 -184.733 -1.43053 -2.62066 -0.907465 -1.13323 -5.44863 -0.571105 -5.96326 14.8526 -2.34199 4.47471 -12.4982 -5.4408 -0.0 0.0 0.0 -0.0 0.0 0.0 1.32564e-14 -1.31993e-13 -1.70756e-13 81.8209 30.1803 -16.4543 -16.4442 -9.10649 30.6159 -0.172268 11.7462 1.67458 -6.22737e-10 5.42323e-10 -6.66263e-11 -1.07791e-09 9.30964e-10 -1.06755e-10 -6.22738e-10 5.42324e-10 -6.66326e-11 7.73091 5.47488 0.417314 -6.22732e-10 5.42318e-10 -6.66263e-11 2.90554 0.965183 0.102902 -6.22732e-10 5.42321e-10 -6.6631e-11 10.2786 0.731801 0.0259123 -6.22746e-10 5.4232e-10 -6.66263e-11 2.22167 -0.733487 -0.20892 1.2984e-14 -1.31995e-13 -1.71104e-13 -79.3264 19.936 8.69965 16.2381 -8.9103 -30.1769 0.524053 20.1267 -2.95232 1.39313e-09 1.38185e-09 -1.13045e-09 2.38959e-09 2.34724e-09 -1.98118e-09 1.39312e-09 1.38184e-09 -1.13044e-09 -7.73091 5.47488 -0.417314 1.39312e-09 1.38184e-09 -1.13046e-09 -2.90554 0.965183 -0.102902 1.39312e-09 1.38185e-09 -1.13045e-09 -10.2786 0.731801 -0.0259123 1.39313e-09 1.38185e-09 -1.13046e-09 -2.22167 -0.733487 0.20892 -2.03217e-16 0.0 -3.88251e-19 -8.73454 -30.7169 -3.81598 -1.8694 69.4988 2.66442 -3.53324 -4.04456 -14.0298 2.03217e-16 0.0 3.88251e-19 -18.0011 1.45236 -8.00243 -0.0198857 19.6546 -0.45376 7.9884 -16.6341 21.9032
49.9997 84.4655 -166.497 -182.751 -7.0767 -184.658 -1.32876 -2.54706 -1.469 -0.944961 -5.50433 -0.706811 -5.58381 14.8324 -2.16 3.80163 -12.5463 -5.16313 -0.0 0.0 0.0 -0.0 0.0 0.0 -3.52463e-15 -1.61561e-13 -8.71298e-14 81.5495 29.9616 -16.4244 -16.4144 -9.07795 30.5523 -0.173267 11.7797 1.67949 -7.87603e-10 3.45477e-10 3.66153e-10 -1.35899e-09 5.84038e-10 6.43905e-10 -7.87603e-10 3.45479e-10 3.66147e-10 7.73091 5.47488 0.417314 -7.87599e-10 3.45475e-10 3.66153e-10 2.90554 0.965183 0.102902 -7.87598e-10 3.45477e-10 3.6615e-10 10.2786 0.731801 0.0259123 -7.87611e-10 3.45476e-10 3.66154e-10 2.22167 -0.733487 -0.20892 -3.76812e-15 -1.61564e-13 -8.74917e-14 -79.3683 20.0801 8.5635 16.2709 -8.94118 -30.2469 0.519459 20.0423 -2.93886 1.30915e-09 9.25781e-10 -1.02335e-09 2.24709e-09 1.56287e-09 -1.79478e-09 1.30913e-09 9.25771e-10 -1.02334e-09 -7.73091 5.47488 -0.417314 1.30913e-09 9.25768e-10 -1.02336e-09 -2.90554 0.965183 -0.102902 1.30914e-09 9.25782e-10 -1.02336e-09 -10.2786 0.731801 -0.0259123 1.30914e-09 9.25778e-10 -1.02336e-09 -2.22167 -0.733487 0.20892 -2.03217e-16 0.0 -3.88251e-19 -8.09359 -31.1081 -2.91795 -1.71528 68.3246 2.51749 -3.96809 -5.02078 -14.9152 2.03217e-16 0.0 3.88251e-19 -17.8793 1.69738 -8.15355 -0.0186468 19.5869 -0.475655 8.0377 -16.8341 21.7039
